# xmcd CD database file generated by OrangeCD 6.3
#
# Track frame offsets:
#	150
#	9525
#	20385
#	29555
#	43607
#	56247
#	68057
#	80970
#	93577
#	102290
#	113382
#	124870
#	137090
#	148875
#	160715
#	173952
#	185285
#	197500
#	210485
#	223085
#	234240
#	245097
#	257340
#	267535
#	277410
#
# Disc length: 3824 seconds
#
# Revision: 0
# Processed by: cddbd v1.5.2PL0 Copyright (c) Steve Scherf et al.
# Submitted via: OrangeCD 6.3
#
DISCID=750eee19
DTITLE=Various Artist - Boppin' the Blues
DYEAR=1900
DGENRE=
TTITLE0=Ike Turner - Get it over Baby
TTITLE1=Emerson, Bliiy "The Kid" - Hey Little Girl
TTITLE2=Rosco Gordon - I'm Gonna Shake It
TTITLE3=Earl Hooker - The Hucklebuck
TTITLE4=Rufus Thomas - Tiger Man
TTITLE5=Little Junior's Blue Flames - Love My Baby
TTITLE6=Love, Billy "Red" - Gee I Wish
TTITLE7=Guitar Red - Go Ahead On
TTITLE8=Parr, Elven and The In the Groove Boys - Mean Mean Woman
TTITLE9=Lewis Johnson Combo - Baby, Tell Me Your Name
TTITLE10=Albert Williams - Rhumba Chillen
TTITLE11=Charles Booker - Walked All Night
TTITLE12=Doctor Ross - My Bebop Gal
TTITLE13=Rosco Gordon - Bop with Me Baby
TTITLE14=Little Milton - Somebody Told Me
TTITLE15=Ike Turner - I'm Gonna Forget About You [Matchbox]
TTITLE16=Willie Nix - Baker Shop Boogie
TTITLE17=Doctor Ross - The Boogie Disease
TTITLE18=Lewis, Joe Hill - Boogie in the Park
TTITLE19=Rosco Gordon - T-Model Boogie
TTITLE20=Billy Emerson - Shim Sham Shimmy
TTITLE21=Frank Frost - Everything's Alright
TTITLE22=Frank Frost - Jack's Jump
TTITLE23=Frank Ballard - You Gotta Learn to Rock and Roll
TTITLE24=Bill Pinkey - After the Hop
EXTD=
EXTT0=
EXTT1=
EXTT2=
EXTT3=
EXTT4=
EXTT5=
EXTT6=
EXTT7=
EXTT8=
EXTT9=
EXTT10=
EXTT11=
EXTT12=
EXTT13=
EXTT14=
EXTT15=
EXTT16=
EXTT17=
EXTT18=
EXTT19=
EXTT20=
EXTT21=
EXTT22=
EXTT23=
EXTT24=
PLAYORDER=
